<?xml version="1.0" encoding="UTF-8" standalone="no"?>
<!DOCTYPE svg PUBLIC "-//W3C//DTD SVG 1.1//EN"
 "http://www.w3.org/Graphics/SVG/1.1/DTD/svg11.dtd">
<!-- Generated by graphviz version 2.40.1 (20161225.0304)
 -->
<!-- Title: dependencies Pages: 1 -->
<svg width="557pt" height="211pt"
 viewBox="0.00 0.00 557.00 211.00" xmlns="http://www.w3.org/2000/svg" xmlns:xlink="http://www.w3.org/1999/xlink">
<g id="graph0" class="graph" transform="scale(1 1) rotate(0) translate(4 207)">
<title>dependencies</title>
<polygon fill="#ffffff" stroke="transparent" points="-4,4 -4,-207 553,-207 553,4 -4,4"/>
<text text-anchor="start" x="253.5091" y="-42.4" font-family="sans-serif" font-weight="bold" font-size="14.00" fill="#000000">Legend</text>
<polygon fill="#ffffb3" stroke="transparent" points="40.5,-10 40.5,-30 60.5,-30 60.5,-10 40.5,-10"/>
<text text-anchor="start" x="64.129" y="-15.4" font-family="sans-serif" font-size="14.00" fill="#000000"> &#160;Declarations</text>
<polygon fill="#8dd3c7" stroke="transparent" points="153.5,-10 153.5,-30 173.5,-30 173.5,-10 153.5,-10"/>
<text text-anchor="start" x="177.2251" y="-15.4" font-family="sans-serif" font-size="14.00" fill="#000000"> &#160;Module</text>
<polygon fill="#80b1d3" stroke="transparent" points="239.5,-10 239.5,-30 259.5,-30 259.5,-10 239.5,-10"/>
<text text-anchor="start" x="263.2812" y="-15.4" font-family="sans-serif" font-size="14.00" fill="#000000"> &#160;Bootstrap</text>
<polygon fill="#fdb462" stroke="transparent" points="336.5,-10 336.5,-30 356.5,-30 356.5,-10 336.5,-10"/>
<text text-anchor="start" x="360.1732" y="-15.4" font-family="sans-serif" font-size="14.00" fill="#000000"> &#160;Providers</text>
<polygon fill="#fb8072" stroke="transparent" points="432.5,-10 432.5,-30 452.5,-30 452.5,-10 432.5,-10"/>
<text text-anchor="start" x="456.2258" y="-15.4" font-family="sans-serif" font-size="14.00" fill="#000000"> &#160;Exports</text>
<g id="clust1" class="cluster">
<title>cluster_ShoppingCartModule</title>
<polygon fill="none" stroke="#000000" stroke-dasharray="1,5" points="8,-70 8,-195 541,-195 541,-70 8,-70"/>
</g>
<g id="clust3" class="cluster">
<title>cluster_ShoppingCartModule_imports</title>
<polygon fill="none" stroke="#000000" points="409,-78 409,-130 533,-130 533,-78 409,-78"/>
</g>
<g id="clust6" class="cluster">
<title>cluster_ShoppingCartModule_providers</title>
<polygon fill="none" stroke="#000000" points="16,-78 16,-130 401,-130 401,-78 16,-78"/>
</g>
<!-- ProductsModule -->
<g id="node1" class="node">
<title>ProductsModule</title>
<polygon fill="#8dd3c7" stroke="#000000" points="525.0438,-122 522.0438,-126 501.0438,-126 498.0438,-122 416.9562,-122 416.9562,-86 525.0438,-86 525.0438,-122"/>
<text text-anchor="middle" x="471" y="-99.8" font-family="Times,serif" font-size="14.00" fill="#000000">ProductsModule</text>
</g>
<!-- ShoppingCartModule -->
<g id="node2" class="node">
<title>ShoppingCartModule</title>
<polygon fill="#8dd3c7" stroke="#000000" points="379.8258,-187 376.8258,-191 355.8258,-191 352.8258,-187 242.1742,-187 242.1742,-151 379.8258,-151 379.8258,-187"/>
<text text-anchor="middle" x="311" y="-164.8" font-family="Times,serif" font-size="14.00" fill="#000000">ShoppingCartModule</text>
</g>
<!-- ProductsModule&#45;&gt;ShoppingCartModule -->
<g id="edge1" class="edge">
<title>ProductsModule&#45;&gt;ShoppingCartModule</title>
<path fill="none" stroke="#000000" d="M471,-122.1061C471,-141.3391 471,-169 471,-169 471,-169 389.783,-169 389.783,-169"/>
<polygon fill="#000000" stroke="#000000" points="389.783,-165.5001 379.783,-169 389.7829,-172.5001 389.783,-165.5001"/>
</g>
<!-- CurrenciesService -->
<g id="node3" class="node">
<title>CurrenciesService</title>
<ellipse fill="#fdb462" stroke="#000000" cx="311" cy="-104" rx="81.6365" ry="18"/>
<text text-anchor="middle" x="311" y="-99.8" font-family="Times,serif" font-size="14.00" fill="#000000">CurrenciesService</text>
</g>
<!-- CurrenciesService&#45;&gt;ShoppingCartModule -->
<g id="edge2" class="edge">
<title>CurrenciesService&#45;&gt;ShoppingCartModule</title>
<path fill="none" stroke="#000000" d="M311,-122.1061C311,-122.1061 311,-140.991 311,-140.991"/>
<polygon fill="#000000" stroke="#000000" points="307.5001,-140.9909 311,-150.991 314.5001,-140.991 307.5001,-140.9909"/>
</g>
<!-- ShoppingCartService -->
<g id="node4" class="node">
<title>ShoppingCartService</title>
<ellipse fill="#fdb462" stroke="#000000" cx="118" cy="-104" rx="93.7804" ry="18"/>
<text text-anchor="middle" x="118" y="-99.8" font-family="Times,serif" font-size="14.00" fill="#000000">ShoppingCartService</text>
</g>
<!-- ShoppingCartService&#45;&gt;ShoppingCartModule -->
<g id="edge3" class="edge">
<title>ShoppingCartService&#45;&gt;ShoppingCartModule</title>
<path fill="none" stroke="#000000" d="M118,-122.1061C118,-141.3391 118,-169 118,-169 118,-169 232.14,-169 232.14,-169"/>
<polygon fill="#000000" stroke="#000000" points="232.14,-172.5001 242.14,-169 232.1399,-165.5001 232.14,-172.5001"/>
</g>
</g>
</svg>
